<svg width="136" height="136" viewBox="0 0 136 136" fill="none" xmlns="http://www.w3.org/2000/svg">
<rect width="136" height="136" rx="10" fill="#343A40"/>
<path fill-rule="evenodd" clip-rule="evenodd" d="M25.2 91.8H53.9C56.463 91.8 58.8973 91.6129 61.2031 91.2388C62.9206 90.96 64.108 89.4274 64.108 87.6874V87.6874C64.108 85.0682 61.483 83.2133 58.9036 83.6685C56.6264 84.0704 54.1586 84.2809 51.5 84.3V84.3C46.0324 84.3 41.6 79.8676 41.6 74.4V37.1C41.6 31.7981 45.8981 27.5 51.2 27.5V27.5C60.4 27.5 67.3667 30 72.1 35C76.9 40 79.3 47 79.3 56V56C79.3 57.7526 80.6838 59.2321 82.4365 59.2321H84.8632C86.7928 59.2321 88.4 57.7296 88.4 55.8V55.8C88.4 44.6667 85.1333 35.9333 78.6 29.6C72.0667 23.2 63.2667 20 52.2 20H25.2C24.4 20 24 20.4 24 21.2V26.3C24 27.1 24.4 27.5 25.2 27.5V27.5C29.4526 27.5 32.9 30.9474 32.9 35.2V76.6C32.9 80.8526 29.4526 84.3 25.2 84.3V84.3C24.4 84.3 24 84.7 24 85.5V90.6C24 91.4 24.4 91.8 25.2 91.8Z" fill="white"/>
<path d="M82.1199 112.8H62.0299C61.4699 112.8 61.1899 112.52 61.1899 111.96V108.39C61.1899 107.83 61.4699 107.55 62.0299 107.55H67.4199V67.79H62.0299C61.4699 67.79 61.1899 67.51 61.1899 66.95V63.38C61.1899 62.82 61.4699 62.54 62.0299 62.54H80.9299C88.6766 62.54 94.8366 64.78 99.4099 69.26C103.983 73.6934 106.27 79.8067 106.27 87.6C106.27 95.3934 104.1 101.553 99.7599 106.08C95.4199 110.56 89.5399 112.8 82.1199 112.8ZM73.5099 107.55H80.4399C93.4133 107.457 99.8999 100.853 99.8999 87.74C99.8999 81.44 98.2199 76.54 94.8599 73.04C91.5466 69.54 86.6699 67.79 80.2299 67.79H73.5099V107.55Z" fill="white"/>
</svg>
