<svg width="85" height="91" viewBox="0 0 85 91" fill="none" xmlns="http://www.w3.org/2000/svg">
<path fill-rule="evenodd" clip-rule="evenodd" d="M1.2 71.8H29.9C32.9108 71.8 35.7442 71.5418 38.4 71.0255V62.8577C35.2165 63.7899 31.5831 64.2706 27.5 64.3H17.6V7.5H27.2C36.4 7.5 43.3667 10 48.1 15C52.9 20 55.3 27 55.3 36C55.3 36.2011 55.2989 36.4011 55.2968 36.6H64.3946C64.3982 36.3347 64.4 36.068 64.4 35.8C64.4 24.6667 61.1333 15.9333 54.6 9.6C48.0667 3.2 39.2667 0 28.2 0H1.2C0.4 0 0 0.4 0 1.2V6.3C0 7.1 0.4 7.5 1.2 7.5H8.9V64.3H1.2C0.4 64.3 0 64.7 0 65.5V70.6C0 71.4 0.4 71.8 1.2 71.8Z" fill="white"/>
<path d="M56.64 90.8H36.55C35.99 90.8 35.71 90.52 35.71 89.96V86.39C35.71 85.83 35.99 85.55 36.55 85.55H41.94V45.79H36.55C35.99 45.79 35.71 45.51 35.71 44.95V41.38C35.71 40.82 35.99 40.54 36.55 40.54H55.45C63.1967 40.54 69.3567 42.78 73.93 47.26C78.5033 51.6933 80.79 57.8067 80.79 65.6C80.79 73.3933 78.62 79.5533 74.28 84.08C69.94 88.56 64.06 90.8 56.64 90.8ZM48.03 85.55H54.96C67.9333 85.4567 74.42 78.8533 74.42 65.74C74.42 59.44 72.74 54.54 69.38 51.04C66.0667 47.54 61.19 45.79 54.75 45.79H48.03V85.55Z" fill="white"/>
</svg>
